# xmcd CD database file
#
# Track frame offsets:
#	150
#	25285
#	48882
#	73917
#	97392
#	129775
#	160072
#	181867
#	195277
#	215745
#	236340
#	260875
#	290317
#	318635
#
# Disc length: 4523 seconds
#
# Revision: 1
# Processed by: cddbd v1.5.1PL0 Copyright (c) Steve Scherf et al.
# Submitted via: CDex 1.51
#
DISCID=cc11a90e
DTITLE=浜田真理子 - mariko live 〜こころうた〜 disc 2
DYEAR=2004
DGENRE=Jazz
TTITLE0=予感
TTITLE1=Ain't misbehavin' 〜胸の振り子
TTITLE2=貴方のためのブルース
TTITLE3=I've got you under my skin
TTITLE4=のこされし者のうた
TTITLE5=船頭小唄
TTITLE6=水の都に雨が降る
TTITLE7=The Crow
TTITLE8=song neber sung
TTITLE9=再開の夜
TTITLE10=かなしみ
TTITLE11=座頭市
TTITLE12=失恋のブルース
TTITLE13=Sunday
EXTD=YEAR: 2004
EXTT0=
EXTT1=
EXTT2=
EXTT3=
EXTT4=
EXTT5=
EXTT6=
EXTT7=
EXTT8=
EXTT9=
EXTT10=
EXTT11=
EXTT12=
EXTT13=
PLAYORDER=
